<svg xmlns="http://www.w3.org/2000/svg" viewBox="0 0 179.75 35"><defs><style>.a{fill:#fff;}.b{fill:#00a993;}.c{fill:#da6b26;}.d{fill:#bf374f;}.e{fill:#573da8;}.f{opacity:0.1;}.g{fill:#f64452;}.h{fill:#00dbb6;}.i{fill:#2d82a8;}.j{fill:#ff9300;}.k{fill:#39a3da;}.l{fill:#6d2b77;}.m{fill:#963fa8;}</style></defs><g transform="translate(-20 -20)"><g transform="translate(27.971 28.05)"><path class="a" d="M15.917,7.8a1.963,1.963,0,0,0-3.685.738A4.163,4.163,0,1,1,9.977,4.319a.671.671,0,0,1,.063.029c.006.006.017.006.023.011h0A1.959,1.959,0,0,0,11.786.84V.834A8.083,8.083,0,1,0,16.1,9.142,1.955,1.955,0,0,0,15.917,7.8Z"/></g><g transform="translate(20 20)"><path class="b" d="M59.394,42.221,42.821,58.794a2.485,2.485,0,0,1-3.5,0h0a2.485,2.485,0,0,1,0-3.5L55.894,38.721a2.485,2.485,0,0,1,3.5,0h0A2.485,2.485,0,0,1,59.394,42.221Z" transform="translate(-25.355 -24.961)"/><path class="c" d="M18.628,1.421,2.021,18.028a2.485,2.485,0,0,0,0,3.5h0a2.485,2.485,0,0,0,3.5,0L22.128,4.921a2.485,2.485,0,0,0,0-3.5h0A2.485,2.485,0,0,0,18.628,1.421Z" transform="translate(-0.854 -0.46)"/><path class="d" d="M31.556,1.621,2.321,30.856a2.485,2.485,0,0,0,0,3.5h0a2.485,2.485,0,0,0,3.5,0L35.056,5.121a2.485,2.485,0,0,0,0-3.5h0A2.485,2.485,0,0,0,31.556,1.621Z" transform="translate(-1.051 -0.591)"/><g transform="translate(45)"><path class="e" d="M134.346,35.956a2.928,2.928,0,0,1-.824,2.093,9.216,9.216,0,0,1-1.167,1.132,7.018,7.018,0,0,1-1.544,1,8.491,8.491,0,0,1-1.99.686,11.2,11.2,0,0,1-2.5.275,10.028,10.028,0,0,1-4.118-.824,9.418,9.418,0,0,1-3.123-2.23,9.716,9.716,0,0,1-1.99-3.363,11.912,11.912,0,0,1-.686-4.186,11.025,11.025,0,0,1,.755-4.152,10.353,10.353,0,0,1,2.093-3.328,9.635,9.635,0,0,1,3.123-2.23,9.5,9.5,0,0,1,3.98-.824,10.8,10.8,0,0,1,4.324.824,7.993,7.993,0,0,1,3.225,2.5,3.129,3.129,0,0,1,.755,1.956,1.87,1.87,0,0,1-.686,1.647,2.374,2.374,0,0,1-1.407.515,1.881,1.881,0,0,1-1.064-.24,5.951,5.951,0,0,1-.686-.515c-.172-.172-.343-.377-.583-.618a6.841,6.841,0,0,0-.892-.755A5.933,5.933,0,0,0,128.1,24.7a4.871,4.871,0,0,0-1.647-.275,4.338,4.338,0,0,0-2.127.515,4.557,4.557,0,0,0-1.544,1.373,6.5,6.5,0,0,0-.961,1.956,8.712,8.712,0,0,0,0,4.6,6.5,6.5,0,0,0,.961,1.956,4.557,4.557,0,0,0,1.544,1.373,4.115,4.115,0,0,0,2.093.515,4.9,4.9,0,0,0,2.333-.583,8.971,8.971,0,0,0,1.99-1.51,2.471,2.471,0,0,1,.892-.583,2,2,0,0,1,.686-.137,2.469,2.469,0,0,1,1.441.515A2.121,2.121,0,0,1,134.346,35.956Z" transform="translate(-116.4 -13.137)"/><path class="e" d="M184.074,40.248a9.45,9.45,0,0,1-3.225-2.265,10.738,10.738,0,0,1-2.093-3.328A11.025,11.025,0,0,1,178,30.5a11.331,11.331,0,0,1,.755-4.186,10.513,10.513,0,0,1,2.093-3.363,9.366,9.366,0,0,1,3.225-2.23,10.294,10.294,0,0,1,11.5,2.23,10.6,10.6,0,0,1,2.127,3.363,11.2,11.2,0,0,1,.755,4.186,11.025,11.025,0,0,1-.755,4.152,9.88,9.88,0,0,1-2.127,3.328,9.7,9.7,0,0,1-3.225,2.23,11,11,0,0,1-8.27.034Zm.275-5.49A5.237,5.237,0,0,0,186,36.1a4.652,4.652,0,0,0,2.23.515,4.974,4.974,0,0,0,2.23-.48,4.593,4.593,0,0,0,1.613-1.3,5.4,5.4,0,0,0,1-1.922,7.383,7.383,0,0,0,.343-2.333,7.82,7.82,0,0,0-.343-2.4,5.844,5.844,0,0,0-1-1.956,4.921,4.921,0,0,0-1.613-1.3,5.081,5.081,0,0,0-2.23-.48,4.978,4.978,0,0,0-2.23.446,4.5,4.5,0,0,0-1.613,1.27,5.4,5.4,0,0,0-1,1.922,7.453,7.453,0,0,0-.343,2.368,7.752,7.752,0,0,0,.343,2.368A5.784,5.784,0,0,0,184.348,34.758Z" transform="translate(-156.863 -13.072)"/><path class="e" d="M255.173,38.358a2.332,2.332,0,0,1-.686,1.681,2.379,2.379,0,0,1-1.75.686,2.439,2.439,0,0,1-1.716-.652,2.181,2.181,0,0,1-.721-1.681V22.5a2.213,2.213,0,0,1,.583-1.441,2.437,2.437,0,0,1,1.887-.686,2.3,2.3,0,0,1,1.853.652,2.049,2.049,0,0,1,.549,1.441v1.235a5.646,5.646,0,0,1,2.368-2.745,7.624,7.624,0,0,1,9.025,1.2,8.729,8.729,0,0,1,1.922,5.971V38.358a2.332,2.332,0,0,1-.686,1.681,2.618,2.618,0,0,1-3.534,0,2.153,2.153,0,0,1-.686-1.681v-8.51a6.429,6.429,0,0,0-1.1-4.015,3.646,3.646,0,0,0-3.054-1.373,3.806,3.806,0,0,0-3.123,1.407,6.429,6.429,0,0,0-1.132,4.083Z" transform="translate(-204.354 -13.137)"/><path class="e" d="M323.207,32.973a5.08,5.08,0,0,0,.926,3.225,3.937,3.937,0,0,0,5.662,0,5.147,5.147,0,0,0,.926-3.225V23.5a2.354,2.354,0,0,1,.686-1.716,2.435,2.435,0,0,1,1.75-.686,2.493,2.493,0,0,1,1.75.686,2.226,2.226,0,0,1,.686,1.716V32.87a11.076,11.076,0,0,1-.583,3.637,8.54,8.54,0,0,1-1.716,2.848,7.939,7.939,0,0,1-2.711,1.853,10.376,10.376,0,0,1-7.24,0,8.081,8.081,0,0,1-2.745-1.853,8.211,8.211,0,0,1-1.716-2.848,10.245,10.245,0,0,1-.583-3.637V23.5a2.354,2.354,0,0,1,.686-1.716,2.435,2.435,0,0,1,1.75-.686,2.493,2.493,0,0,1,1.75.686,2.254,2.254,0,0,1,.721,1.716Z" transform="translate(-249.021 -13.86)"/><path class="e" d="M389.373,25.221a2.459,2.459,0,0,1-.618,1.647,2.307,2.307,0,0,1-1.853.721,2.215,2.215,0,0,1-1.853-.721,2.578,2.578,0,0,1-.549-1.647V2.4a2.354,2.354,0,0,1,.686-1.716A2.435,2.435,0,0,1,386.936,0a2.493,2.493,0,0,1,1.75.686,2.226,2.226,0,0,1,.686,1.716v8.51a8.365,8.365,0,0,1,2.608-2.951,6.585,6.585,0,0,1,3.912-1.132,8.589,8.589,0,0,1,3.672.789,8.184,8.184,0,0,1,2.882,2.162,10.514,10.514,0,0,1,1.887,3.328,13.074,13.074,0,0,1,.686,4.289,11.736,11.736,0,0,1-.755,4.358,10.5,10.5,0,0,1-2.059,3.328,8.966,8.966,0,0,1-6.588,2.882,6.7,6.7,0,0,1-3.74-1.064,6.619,6.619,0,0,1-2.471-2.985v1.3Zm1.407-3.431a4.871,4.871,0,0,0,1.716,1.27,5.191,5.191,0,0,0,2.23.48,4.749,4.749,0,0,0,2.23-.515,5.237,5.237,0,0,0,1.647-1.338,6.082,6.082,0,0,0,1.029-1.922,7.384,7.384,0,0,0,.343-2.333,7.821,7.821,0,0,0-.343-2.4,5.419,5.419,0,0,0-1.029-1.922,4.713,4.713,0,0,0-1.647-1.3,5.123,5.123,0,0,0-6.142,1.3,5.538,5.538,0,0,0-1.064,1.922,7.82,7.82,0,0,0-.343,2.4,7.82,7.82,0,0,0,.343,2.4A5.365,5.365,0,0,0,390.779,21.789Z" transform="translate(-292.505)"/><path class="e" d="M458.241,31.735a5.518,5.518,0,0,0,1.784,3.672,5.315,5.315,0,0,0,3.672,1.27,7.036,7.036,0,0,0,2.917-.618,6.168,6.168,0,0,0,1.064-.583c.309-.206.549-.377.755-.515a3.035,3.035,0,0,1,1.064-.309,2.029,2.029,0,0,1,1.544.686,2.189,2.189,0,0,1,.618,1.51,2.041,2.041,0,0,1-.309,1.1,2.833,2.833,0,0,1-.721.824,10.258,10.258,0,0,1-2.985,1.647,11.915,11.915,0,0,1-4.324.686,10.389,10.389,0,0,1-4.049-.789,9.244,9.244,0,0,1-3.157-2.162,9.4,9.4,0,0,1-2.059-3.328,11.791,11.791,0,0,1-.755-4.186,11.151,11.151,0,0,1,.755-4.152,10.676,10.676,0,0,1,2.093-3.4A9.722,9.722,0,0,1,463.285,20a9.048,9.048,0,0,1,3.775.755,8.572,8.572,0,0,1,2.882,1.956,9.114,9.114,0,0,1,1.853,2.814,8.466,8.466,0,0,1,.652,3.328,4.638,4.638,0,0,1-.412,2.093,1.786,1.786,0,0,1-1.784.824h-12.01Zm9.436-2.917a4.038,4.038,0,0,0-.24-1.544,3.988,3.988,0,0,0-.858-1.407,4.262,4.262,0,0,0-3.328-1.407,4.745,4.745,0,0,0-3.225,1.132,5.368,5.368,0,0,0-1.716,3.225h9.368Z" transform="translate(-337.697 -13.137)"/></g><path class="f" d="M82.321,7.121l-3.5,3.5a2.485,2.485,0,0,1-3.5,0h0a2.485,2.485,0,0,1,0-3.5l3.5-3.5a2.485,2.485,0,0,1,3.5,0h0A2.485,2.485,0,0,1,82.321,7.121Z" transform="translate(-49.002 -1.905)"/><path class="g" d="M84.321,5.121l-3.5,3.5a2.485,2.485,0,0,1-3.5,0h0a2.485,2.485,0,0,1,0-3.5l3.5-3.5a2.485,2.485,0,0,1,3.5,0h0A2.485,2.485,0,0,1,84.321,5.121Z" transform="translate(-50.316 -0.591)"/><path class="f" d="M82.421,44.221l-3.5,3.5a2.485,2.485,0,0,1-3.5,0h0a2.485,2.485,0,0,1,0-3.5l3.5-3.5a2.485,2.485,0,0,1,3.5,0h0A2.485,2.485,0,0,1,82.421,44.221Z" transform="translate(-49.068 -26.275)"/><path class="h" d="M84.421,42.221l-3.5,3.5a2.485,2.485,0,0,1-3.5,0h0a2.485,2.485,0,0,1,0-3.5l3.5-3.5a2.485,2.485,0,0,1,3.5,0h0A2.485,2.485,0,0,1,84.421,42.221Z" transform="translate(-50.381 -24.961)"/><path class="f" d="M45.221,6.921l-3.5,3.534a2.485,2.485,0,0,1-3.5,0h0a2.485,2.485,0,0,1,0-3.5l3.5-3.534a2.485,2.485,0,0,1,3.5,0h0A2.485,2.485,0,0,1,45.221,6.921Z" transform="translate(-24.632 -1.774)"/><path class="i" d="M81.721,81.621l-3.5,3.5a2.485,2.485,0,0,1-3.5,0h0a2.485,2.485,0,0,1,0-3.5l3.5-3.5a2.485,2.485,0,0,1,3.5,0h0A2.485,2.485,0,0,1,81.721,81.621Z" transform="translate(-48.608 -50.841)"/><path class="j" d="M47.221,4.921l-3.5,3.534a2.485,2.485,0,0,1-3.5,0h0a2.485,2.485,0,0,1,0-3.5l3.5-3.534a2.485,2.485,0,0,1,3.5,0h0A2.485,2.485,0,0,1,47.221,4.921Z" transform="translate(-25.946 -0.46)"/><path class="k" d="M83.721,79.621l-3.5,3.5a2.485,2.485,0,0,1-3.5,0h0a2.485,2.485,0,0,1,0-3.5l3.5-3.5a2.485,2.485,0,0,1,3.5,0h0A2.485,2.485,0,0,1,83.721,79.621Z" transform="translate(-49.922 -49.527)"/><path class="l" d="M4.221,4.121l-3.5,3.5a2.485,2.485,0,0,0,0,3.5h0a2.485,2.485,0,0,0,3.5,0l3.5-3.5a2.485,2.485,0,0,0,0-3.5h0A2.485,2.485,0,0,0,4.221,4.121Z" transform="translate(0 -2.233)"/><path class="m" d="M6.221,2.121l-3.5,3.5a2.485,2.485,0,0,0,0,3.5h0a2.485,2.485,0,0,0,3.5,0l3.5-3.5a2.485,2.485,0,0,0,0-3.5h0A2.485,2.485,0,0,0,6.221,2.121Z" transform="translate(-1.314 -0.92)"/></g></g></svg>
